<svg xmlns="http://www.w3.org/2000/svg" width="300" height="100" viewBox="0 0 300 100"><g transform="translate(-1578 -760)"><rect width="300" height="100" transform="translate(1578 760)" fill="none"/><path d="M105.4,17.6a4.118,4.118,0,0,1-4.1,4.1,4.055,4.055,0,0,1-4.1-4.1,4,4,0,0,1,4.1-4.1A4.25,4.25,0,0,1,105.4,17.6ZM88.7,25.8v1a7.656,7.656,0,0,0-6-2.5A11.94,11.94,0,0,0,70.6,36.6,11.881,11.881,0,0,0,82.7,48.9a7.325,7.325,0,0,0,6-2.6v1.1a.9.9,0,0,0,.9.9h5V24.9h-5A.967.967,0,0,0,88.7,25.8Zm0,15a6.07,6.07,0,0,1-5,2.6c-4,0-7-2.5-7-6.7s3.1-6.7,7-6.7a5.93,5.93,0,0,1,5,2.6Zm9.7-15.9h6V48.3h-6Zm89.3-.6a7.656,7.656,0,0,0-6,2.5V13.7h-6V48.4h5a.9.9,0,0,0,.9-.9V46.4h0a7.554,7.554,0,0,0,6,2.6,11.94,11.94,0,0,0,12.1-12.3A11.826,11.826,0,0,0,187.7,24.3Zm-1,19a5.93,5.93,0,0,1-5-2.6V32.3a6.818,6.818,0,0,1,5-2.6c4,0,7,2.5,7,6.7A6.64,6.64,0,0,1,186.7,43.3Zm-14.1-8.8v14h-6V35.2c0-3.9-1.2-5.4-4.6-5.4a6.7,6.7,0,0,0-4.9,2.3V48.4h-6V24.9h4.7a.9.9,0,0,1,.9.9v1a8.659,8.659,0,0,1,6.4-2.5,9.489,9.489,0,0,1,6.5,2.2C171.8,28.3,172.6,30.5,172.6,34.5Zm-36-10.2a7.656,7.656,0,0,0-6,2.5V13.7h-6V48.4h5a.9.9,0,0,0,.9-.9V46.4h0a7.554,7.554,0,0,0,6,2.6,11.94,11.94,0,0,0,12.1-12.3A11.827,11.827,0,0,0,136.6,24.3Zm-1,19a5.93,5.93,0,0,1-5-2.6V32.3a6.818,6.818,0,0,1,5-2.6c4,0,7,2.5,7,6.7A6.64,6.64,0,0,1,135.6,43.3Zm-16.2-19a9.418,9.418,0,0,1,2.7.3v5.5s-5-1.7-8.1,1.9V48.4h-6V24.9h5a.9.9,0,0,1,.9.9v1A8.766,8.766,0,0,1,119.4,24.3Zm-62.1,22c-.3-.7-.6-1.6-.9-2.2-.5-1.1-1-2.2-1.4-3.2l-.1-.1C50.6,31.5,46,22,41.1,12.6l-.2-.4c-.5-.9-1-1.9-1.5-2.9a16.315,16.315,0,0,0-2.2-3.4A10.139,10.139,0,0,0,29.3,2a10.8,10.8,0,0,0-8,3.7A17.526,17.526,0,0,0,19,9.2c-.5,1-1,2-1.5,2.9l-.2.4C12.5,21.8,7.8,31.3,3.5,40.7l-.1.1C3,41.8,2.5,42.9,2,44c-.3.7-.6,1.4-.9,2.2a13.31,13.31,0,0,0,7.4,17,12.407,12.407,0,0,0,5,1c.5,0,1.1-.1,1.6-.1A14.76,14.76,0,0,0,21.3,62,29.247,29.247,0,0,0,29,55.5,33.236,33.236,0,0,0,36.7,62a15.746,15.746,0,0,0,6.2,2.1,8.6,8.6,0,0,0,1.6.1,12.079,12.079,0,0,0,5-1,13.056,13.056,0,0,0,8.1-10.3A10.016,10.016,0,0,0,57.3,46.3ZM29.2,49.5c-3.4-4.2-5.5-8.2-6.3-11.6a10.032,10.032,0,0,1-.2-3.8,5.461,5.461,0,0,1,1-2.6,6.6,6.6,0,0,1,5.5-2.7,6.466,6.466,0,0,1,5.5,2.7,5.46,5.46,0,0,1,1,2.6,10.032,10.032,0,0,1-.2,3.8C34.7,41.2,32.5,45.2,29.2,49.5ZM54,52.4a9.288,9.288,0,0,1-5.7,7.3,9.433,9.433,0,0,1-4.7.6,12.51,12.51,0,0,1-4.7-1.6,29.719,29.719,0,0,1-7.1-6c4.1-5,6.6-9.7,7.5-13.8a16.211,16.211,0,0,0,.3-5.3,8.713,8.713,0,0,0-1.7-4.2A10.492,10.492,0,0,0,29.1,25a10.752,10.752,0,0,0-8.8,4.4,10.358,10.358,0,0,0-1.7,4.2,13.871,13.871,0,0,0,.3,5.3c.9,4.1,3.5,8.8,7.5,13.8a27.534,27.534,0,0,1-7.1,6,13.122,13.122,0,0,1-4.7,1.6,10.345,10.345,0,0,1-4.7-.6,9.332,9.332,0,0,1-5.7-7.3,9.491,9.491,0,0,1,.6-4.9c.2-.6.5-1.2.8-2,.4-1,.9-2.1,1.4-3.1l.1-.1c4.3-9.3,8.9-18.8,13.7-28l.2-.4c.5-.9,1-1.9,1.5-2.9a17.772,17.772,0,0,1,1.7-2.7,6.585,6.585,0,0,1,10,0A12.352,12.352,0,0,1,35.9,11c.5.9,1,1.9,1.5,2.9l.2.4c4.7,9.3,9.3,18.8,13.6,28v.1c.5,1,.9,2.1,1.4,3.1.3.7.6,1.4.8,2A8.46,8.46,0,0,1,54,52.4Z" transform="translate(1627.776 777)" fill="#ff5a5f"/></g></svg>