<svg xmlns="http://www.w3.org/2000/svg" width="300" height="100" viewBox="0 0 300 100"><g transform="translate(-326 -760)"><rect width="300" height="100" transform="translate(326 760)" fill="none"/><g transform="translate(376 777.1)"><path d="M64.1,47.8,66.6,42a16.877,16.877,0,0,0,9.9,3.1c2.6,0,4.3-1,4.3-2.5,0-4.3-15.7-.9-15.8-11.7,0-5.5,4.8-9.7,11.7-9.7,4.1,0,8.2,1,11.1,3.3l-2.3,5.9a17.788,17.788,0,0,0-9.1-2.9c-2.1,0-3.6,1-3.6,2.3,0,4.2,15.8,1.9,16,12.2,0,5.6-4.7,9.5-11.5,9.5-5.2,0-9.7-1.2-13.2-3.7"/><path d="M160.2,39.9a7.316,7.316,0,0,1-6.3,3.7,7.2,7.2,0,0,1,0-14.4,7.316,7.316,0,0,1,6.3,3.7l6.9-3.8a15.309,15.309,0,0,0-13.2-7.8,15.1,15.1,0,1,0,13.2,22.4Z"/><rect width="8.6" height="42.3" transform="translate(92.1 8.6)"/><path d="M170.5,8.6V50.9h8.6V38.3l10.3,12.6h11.1l-13.1-15,12.1-14.1H188.9l-9.8,11.7V8.6Z"/><path d="M126.4,40a7.874,7.874,0,0,1-6.7,3.6,7.2,7.2,0,0,1,0-14.4,7.825,7.825,0,0,1,6.7,3.7Zm0-18.2v3.4c-1.4-2.4-4.9-4-8.6-4-7.6,0-13.6,6.7-13.6,15.1s6,15.2,13.6,15.2c3.7,0,7.2-1.7,8.6-4v3.4H135V21.8Z"/><path d="M10.6,40a5.335,5.335,0,0,1-5.3,5.3,5.3,5.3,0,1,1,0-10.6h5.3Z" fill="#e01e5a"/><path d="M13.3,40A5.35,5.35,0,0,1,24,40V53.3a5.3,5.3,0,0,1-10.6,0V40Z" fill="#e01e5a"/><path d="M18.6,18.5a5.3,5.3,0,1,1,5.3-5.3v5.3Z" fill="#36c5f0"/><path d="M18.6,21.3a5.3,5.3,0,1,1,0,10.6H5.3a5.3,5.3,0,1,1,0-10.6Z" fill="#36c5f0"/><path d="M40,26.6a5.3,5.3,0,1,1,5.3,5.3H40Z" fill="#2eb67d"/><path d="M37.3,26.6a5.3,5.3,0,1,1-10.6,0V13.2a5.3,5.3,0,1,1,10.6,0Z" fill="#2eb67d"/><path d="M32,48a5.3,5.3,0,1,1-5.3,5.3V48Z" fill="#ecb22e"/><path d="M32,45.3a5.3,5.3,0,0,1,0-10.6H45.4a5.3,5.3,0,0,1,0,10.6Z" fill="#ecb22e"/></g></g></svg>