<svg xmlns="http://www.w3.org/2000/svg" width="300" height="100" viewBox="0 0 300 100"><g transform="translate(-1265 -760)"><rect width="300" height="100" transform="translate(1265 760)" fill="none"/><g transform="translate(1315 777.2)"><path d="M0,14.7H7V30.2H21.7V14.7h7V52.8h-7V36.9H7V52.8H0ZM50.9,40.4a5.8,5.8,0,1,1-11.6,0V24H32.7V40.4a12.4,12.4,0,1,0,24.8,0V24H50.9V40.4M76,24.1a10.4,10.4,0,0,0-7.8,3.1V14.7H61.6V38c0,8.7,6.3,14.7,13.4,14.7,7.9,0,14.8-6.1,14.8-14.3A14.135,14.135,0,0,0,76,24.1Zm.2,22.5a8.2,8.2,0,0,1,0-16.4c3.8,0,7.3,3.8,7.3,8.2C83.4,42.9,80,46.6,76.2,46.6ZM101,25.8c0-3.3,2.2-4.4,4.7-4.4,2,0,4.6,1.5,6.3,3.3l4.3-5.1a13.858,13.858,0,0,0-10.2-4.9c-7.2,0-12.4,4.2-12.4,11.1,0,12.9,15.9,8.8,15.9,16,0,2.2-2.2,4.2-4.7,4.2-3.9,0-5.2-1.9-7-3.9l-4.8,5a14.248,14.248,0,0,0,11.5,5.7c6.8,0,12.4-4.2,12.4-10.9-.2-14.3-16-9.9-16-16.1m33.3-2c-7.1,0-13.4,6-13.4,14.7V61.9h6.6V49.3a10.039,10.039,0,0,0,7.8,3.1,14.07,14.07,0,0,0,13.8-14.3c0-8.2-6.9-14.3-14.8-14.3Zm1.2,22.5a8.2,8.2,0,0,1,0-16.4c3.8,0,7.3,3.8,7.3,8.2S139.3,46.3,135.5,46.3Zm62.6.3c-3.9,0-5-1.7-5-4.3V30.8h6.1V25H193V17.3l-6.7,3V43.7c0,6,4.1,9,9.8,9a22.815,22.815,0,0,0,2.7-.2l1.6-6a17.7,17.7,0,0,1-2.3.1" fill="#45535e"/><path d="M180.5,31.2a14.952,14.952,0,0,0-5.3-5.3,14.517,14.517,0,0,0-5.4-1.9V17a5.1,5.1,0,0,0,3.2-4.8,5.271,5.271,0,0,0-5.3-5.3,5.335,5.335,0,0,0-5.3,5.3,5.01,5.01,0,0,0,3.1,4.8v7a13.588,13.588,0,0,0-4.7,1.5c-3-2.3-13-9.8-18.8-14.3a7.719,7.719,0,0,0,.2-1.5,5.911,5.911,0,0,0-5.9-5.9,5.848,5.848,0,0,0-5.9,5.9,5.911,5.911,0,0,0,5.9,5.9,5.291,5.291,0,0,0,3-.9l1.2.9,16.8,12.1a13.121,13.121,0,0,0-2.4,2.8,13.45,13.45,0,0,0-2.2,7V38a14.4,14.4,0,0,0,.9,5.1,13.036,13.036,0,0,0,2.2,3.8l-5.6,5.6a4.692,4.692,0,0,0-4.8,1,4.224,4.224,0,0,0-1.3,3.2,4.816,4.816,0,0,0,1.3,3.2,4.224,4.224,0,0,0,3.2,1.3,4.626,4.626,0,0,0,3.2-1.3,4.224,4.224,0,0,0,1.3-3.2,6.753,6.753,0,0,0-.2-1.4l5.8-5.8a15.913,15.913,0,0,0,2.6,1.4,14.65,14.65,0,0,0,6,1.3h.4a15.293,15.293,0,0,0,6.9-1.7,13.925,13.925,0,0,0,5.4-5.1,13.767,13.767,0,0,0,2.1-7.2v-.1a10.587,10.587,0,0,0-1.6-6.9Zm-7,12.1a7.583,7.583,0,0,1-5.4,2.8h-.3a6.921,6.921,0,0,1-3.4-.9,7.822,7.822,0,0,1-3-2.7,6.284,6.284,0,0,1-1.2-3.7v-.4a7,7,0,0,1,.9-3.7,7.387,7.387,0,0,1,2.8-3,6.894,6.894,0,0,1,3.9-1.2h.1a8.627,8.627,0,0,1,3.6.8,8.029,8.029,0,0,1,2.9,2.6,9.174,9.174,0,0,1,1.3,3.6v.8a9.028,9.028,0,0,1-2.2,5Z" fill="#f8761f"/></g></g></svg>