<svg xmlns="http://www.w3.org/2000/svg" width="300" height="100" viewBox="0 0 300 100"><g transform="translate(-13 -760)"><rect width="300" height="100" transform="translate(13 760)" fill="none"/><g transform="translate(62.511 777.2)"><path d="M161.8,22.6c-1.6-1.8-4.3-2.8-8-2.8h-11a1.435,1.435,0,0,0-1.5,1.3l-4.5,28.3a.9.9,0,0,0,.9,1.1h5.7a1.172,1.172,0,0,0,1.1-.9l1.3-8a1.6,1.6,0,0,1,1.5-1.3h3.5q10.95,0,12.6-10.5C163.7,26.7,163.2,24.3,161.8,22.6Zm-6.7,7.5c-.6,4-3.6,4-6.6,4h-1.7l1.2-7.4a1.063,1.063,0,0,1,.9-.8h.8c2,0,3.9,0,4.8,1.1A3.738,3.738,0,0,1,155.1,30.1Z" fill="#179bd7"/><path d="M186.8,30h-5.3a.876.876,0,0,0-.9.8l-.2,1.5-.4-.5c-1.1-1.7-3.7-2.2-6.2-2.2A12.185,12.185,0,0,0,162,40.2a9.744,9.744,0,0,0,2,8.1c1.6,1.9,3.9,2.7,6.7,2.7a10.106,10.106,0,0,0,7.3-3l-.2,1.5a.9.9,0,0,0,.9,1.1h4.8a1.514,1.514,0,0,0,1.5-1.3l2.9-18.1A1.283,1.283,0,0,0,186.8,30Zm-7.4,10.3a5.867,5.867,0,0,1-6,5,4.369,4.369,0,0,1-3.5-1.4,4.182,4.182,0,0,1-.8-3.7,5.924,5.924,0,0,1,5.9-5.1,4.513,4.513,0,0,1,3.5,1.4A4.864,4.864,0,0,1,179.4,40.3Z" fill="#179bd7"/><path d="M199,19.8h-5.1a.876.876,0,0,0-.9.8l-4.5,28.8a.9.9,0,0,0,.9,1.1H194a1.435,1.435,0,0,0,1.5-1.3L200,20.9A1.028,1.028,0,0,0,199,19.8Z" fill="#179bd7"/><path d="M83.1,22.6c-1.6-1.8-4.4-2.8-8-2.8H64a1.435,1.435,0,0,0-1.5,1.3L58,49.4a.9.9,0,0,0,.9,1.1h5.3a1.435,1.435,0,0,0,1.5-1.3l1.2-7.6a1.6,1.6,0,0,1,1.5-1.3H72q10.95,0,12.6-10.5Q85.2,25.15,83.1,22.6Zm-6.8,7.5c-.6,4-3.6,4-6.6,4H68l1.2-7.4a1.063,1.063,0,0,1,.9-.8H71c2,0,3.9,0,4.8,1.1A3.424,3.424,0,0,1,76.3,30.1Z" fill="#253b80"/><path d="M108,30h-5.3a.876.876,0,0,0-.9.8l-.2,1.5-.4-.5c-1.1-1.7-3.7-2.2-6.2-2.2A12.185,12.185,0,0,0,83.2,40.2a9.744,9.744,0,0,0,2,8.1c1.6,1.9,3.9,2.7,6.7,2.7a10.106,10.106,0,0,0,7.3-3L99,49.5a.9.9,0,0,0,.9,1.1h4.8a1.514,1.514,0,0,0,1.5-1.3L109,31A1,1,0,0,0,108,30Zm-7.3,10.3a5.867,5.867,0,0,1-6,5,4.369,4.369,0,0,1-3.5-1.4,4.182,4.182,0,0,1-.8-3.7,5.924,5.924,0,0,1,5.9-5.1,4.513,4.513,0,0,1,3.5,1.4A4.865,4.865,0,0,1,100.7,40.3Z" fill="#253b80"/><path d="M136.2,30h-5.3a1.709,1.709,0,0,0-1.3.7l-7.3,10.8-3.1-10.4a1.625,1.625,0,0,0-1.5-1.1h-5.2a.938.938,0,0,0-.9,1.2l5.8,17.2-5.5,7.8a.97.97,0,0,0,.8,1.5H118a1.457,1.457,0,0,0,1.3-.7L137,31.5A.984.984,0,0,0,136.2,30Z" fill="#253b80"/><path d="M39.8,22.9a7.6,7.6,0,0,0-2.2-1.7h0a2.92,2.92,0,0,1-.2.9c-.1.3-.1.6-.2.8C35.4,31.4,30,35,23,35.8a6.6,6.6,0,0,1-1.4.1h-6a2.072,2.072,0,0,0-2.1,1.8l-2,12.8-.3,1.6-.6,4.1a1.109,1.109,0,0,0,1.1,1.3h7.9a2.019,2.019,0,0,0,1.9-1.6l.1-.4,1.5-9.4.1-.5A1.858,1.858,0,0,1,25.1,44h1.2c7.4,0,13.4-3,15.1-12C42.1,28.2,41.8,25.1,39.8,22.9Z" fill="#179bd7"/><path d="M13.4,37.8l.1-.5,2.5-16a1.77,1.77,0,0,1,1.1-1.4,1.884,1.884,0,0,1,.8-.2H29.8a23.759,23.759,0,0,1,3.9.3c.3.1.7.1,1,.2a2.92,2.92,0,0,0,.9.2c.1,0,.2.1.3.1h.2a7.741,7.741,0,0,1,1.6.7h0c.6-3.8,0-6.4-2.1-8.7-2.3-2.6-6.3-3.7-11.5-3.7H8.9a2.072,2.072,0,0,0-2.1,1.8L.5,50.6a1.316,1.316,0,0,0,1.3,1.5h9.3l.3-1.6Z" fill="#253b80"/><path d="M37.7,21.2a7.741,7.741,0,0,0-1.6-.7h-.2c-.1,0-.2-.1-.3-.1a2.92,2.92,0,0,0-.9-.2c-.3-.1-.7-.1-1-.2a23.759,23.759,0,0,0-3.9-.3H17.9a1.884,1.884,0,0,0-.8.2A2.208,2.208,0,0,0,16,21.3l-2.5,16-.1.5A2.134,2.134,0,0,1,15.5,36h6.1c.5,0,1-.1,1.4-.1C30,35,35.4,31.4,37.3,23c.1-.3.1-.5.2-.8.1-.4.1-.7.2-1Z" fill="#222d65"/></g></g></svg>