<svg xmlns="http://www.w3.org/2000/svg" width="300" height="100" viewBox="0 0 300 100"><g transform="translate(-639 -760)"><rect width="300" height="100" transform="translate(639 760)" fill="none"/><g transform="translate(689 777)"><path d="M29,10.9a3.9,3.9,0,0,1-7.8,0,3.9,3.9,0,1,1,7.8,0ZM25.1,18a4.1,4.1,0,1,0,4.1,4.1A4,4,0,0,0,25.1,18Zm0,10.9a4.2,4.2,0,1,0,4.2,4.2A4.225,4.225,0,0,0,25.1,28.9Zm0,11.2a4.1,4.1,0,1,0,4.1,4.1A4.118,4.118,0,0,0,25.1,40.1Zm0,11.3A3.9,3.9,0,1,0,29,55.3,3.971,3.971,0,0,0,25.1,51.4Zm10.8-34A4.6,4.6,0,1,0,40.5,22,4.653,4.653,0,0,0,35.9,17.4Zm0,11a4.8,4.8,0,1,0,4.8,4.8A4.739,4.739,0,0,0,35.9,28.4Zm0,11.1a4.6,4.6,0,1,0,4.6,4.6A4.721,4.721,0,0,0,35.9,39.5ZM47.1,27.9a5.3,5.3,0,0,0,0,10.6,5.209,5.209,0,0,0,5.3-5.3A5.469,5.469,0,0,0,47.1,27.9ZM14.2,18.5A3.5,3.5,0,1,0,17.7,22,3.543,3.543,0,0,0,14.2,18.5Zm0,11a3.7,3.7,0,1,0,3.7,3.7A3.63,3.63,0,0,0,14.2,29.5Zm0,11.1a3.5,3.5,0,1,0,3.5,3.5A3.543,3.543,0,0,0,14.2,40.6ZM3.2,30a3.2,3.2,0,0,0,0,6.4,3.2,3.2,0,0,0,0-6.4Z" fill="#00b0b9"/><path d="M92.3,26.3a.751.751,0,0,0-.7.7V54.8a.751.751,0,0,0,.7.7h3.4a.751.751,0,0,0,.7-.7V27a.751.751,0,0,0-.7-.7Z" fill="#002a3a"/><path d="M94.1,14.6a3.2,3.2,0,1,0,3.2,3.2A3.159,3.159,0,0,0,94.1,14.6Z" fill="#002a3a"/><path d="M163.6,26.3a.751.751,0,0,0-.7.7V54.8a.751.751,0,0,0,.7.7H167a.751.751,0,0,0,.7-.7V27a.751.751,0,0,0-.7-.7Z" fill="#002a3a"/><path d="M165.2,14.6a3.2,3.2,0,1,0,3.2,3.2A3.159,3.159,0,0,0,165.2,14.6Z" fill="#002a3a"/><path d="M198.8,52.8a.646.646,0,0,0,.2-.5h0v-.2a.2.2,0,0,0-.2-.2.7.7,0,0,0-.4-.2h-1.3v2.5h.4v-.9h.5l.7.9h.4l-.9-1.1C198.6,53.2,198.8,53,198.8,52.8Zm-1.2.2v-.9h.7c.2,0,.4,0,.5.2.2,0,.2.2.2.4h0c0,.2,0,.4-.2.4s-.4.2-.5.2h-.7Z" fill="#002a3a"/><path d="M198.1,50.7a2.3,2.3,0,1,0,2.3,2.3A2.4,2.4,0,0,0,198.1,50.7Zm0,4.4a2.1,2.1,0,1,1,2.1-2.1A2.112,2.112,0,0,1,198.1,55.1Z" fill="#002a3a"/><path d="M119.9,30.9a.751.751,0,0,0,.7-.7V26.8a.751.751,0,0,0-.7-.7h-7.1V15.5a.751.751,0,0,0-.7-.7h-3.4a.751.751,0,0,0-.7.7V26.1h-3.5a.751.751,0,0,0-.7.7v3.4a.751.751,0,0,0,.7.7H108V47c0,5,3.4,8.1,8.1,8.1h3.5a.751.751,0,0,0,.7-.7V51a.751.751,0,0,0-.7-.7h-3a3.783,3.783,0,0,1-3.9-4.1V30.7h7.1l.1.2Z" fill="#002a3a"/><path d="M190.3,30.9a.751.751,0,0,0,.7-.7V26.8a.751.751,0,0,0-.7-.7h-7.1V15.5a.751.751,0,0,0-.7-.7h-3.4a.751.751,0,0,0-.7.7V26.1h-3.5a.751.751,0,0,0-.7.7v3.4a.751.751,0,0,0,.7.7h3.5V47c0,5,3.4,8.1,8.1,8.1H190a.751.751,0,0,0,.7-.7V51a.751.751,0,0,0-.7-.7h-3a3.783,3.783,0,0,1-3.9-4.1V30.7h7.3l-.1.2Z" fill="#002a3a"/><path d="M71.3,30.9V54.6a.751.751,0,0,0,.7.7h3.4a.751.751,0,0,0,.7-.7V30.9h7.8a.751.751,0,0,0,.7-.7V26.8a.751.751,0,0,0-.7-.7H76.1V19.9A3.981,3.981,0,0,1,80,15.7h3.9a.751.751,0,0,0,.7-.7V11.6a.751.751,0,0,0-.7-.7H80.2a8.812,8.812,0,0,0-8.8,8.8v6.4H67.9a.751.751,0,0,0-.7.7v3.4a.751.751,0,0,0,.7.7Z" fill="#002a3a"/><path d="M152.3,29.6a14.138,14.138,0,0,0-20-.5V11.4a.751.751,0,0,0-.7-.7h-3.4a.751.751,0,0,0-.7.7V40.6c0,10.8,7.3,15.6,14.3,15.6,7.1,0,14.3-4.8,14.3-15.6A14.322,14.322,0,0,0,152.3,29.6ZM142,51.7c-7.1,0-9.7-5.7-9.7-11,0-6.5,3.9-10.8,9.7-10.8s9.7,4.4,9.7,10.8C151.6,46.1,149.1,51.7,142,51.7Z" fill="#002a3a"/></g></g></svg>