<svg xmlns="http://www.w3.org/2000/svg" width="300" height="100" viewBox="0 0 300 100"><g transform="translate(-952 -760)"><rect width="300" height="100" transform="translate(952 760)" fill="none"/><g transform="translate(1016.7 781.662)"><path d="M42.168,19.757H22.255v5.872H36.381c-.681,8.254-7.574,11.828-14.126,11.828A15.509,15.509,0,0,1,6.682,21.714,15.582,15.582,0,0,1,22.34,5.972a15.246,15.246,0,0,1,10.637,4.255l4.17-4.255A20.982,20.982,0,0,0,22.17.1,21.847,21.847,0,0,0,.3,21.629a21.929,21.929,0,0,0,22.125,21.7c11.573,0,20.083-7.914,20.083-19.657a18.833,18.833,0,0,0-.34-3.914Z" transform="translate(0 0)" fill="#4885ed"/><path d="M66.141,18.2a13.914,13.914,0,1,0,.085,27.827A13.66,13.66,0,0,0,80.1,32.156C80.1,22.88,72.864,18.2,66.141,18.2Zm.085,5.446c4,0,7.829,3.234,7.829,8.425,0,5.106-3.744,8.425-7.829,8.425-4.425,0-7.914-3.574-7.914-8.51a7.9,7.9,0,0,1,7.914-8.339Z" transform="translate(-7.72 -2.698)" fill="#db3236"/><path d="M101.941,18.2a13.914,13.914,0,1,0,.085,27.827A13.66,13.66,0,0,0,115.9,32.156c0-9.276-7.233-13.956-13.956-13.956Zm.085,5.446c4,0,7.829,3.234,7.829,8.425,0,5.106-3.744,8.425-7.829,8.425-4.425,0-7.914-3.574-7.914-8.51a7.9,7.9,0,0,1,7.914-8.339Z" transform="translate(-13.055 -2.698)" fill="#f4c20d"/><path d="M137.16,18.2c-7.489,0-13.36,6.552-13.36,13.956a13.776,13.776,0,0,0,13.275,13.956,9.354,9.354,0,0,0,7.659-3.4v2.723c0,4.765-2.893,7.659-7.318,7.659a7.776,7.776,0,0,1-7.148-4.936l-5.446,2.213c1.872,4,5.7,8.169,12.509,8.169,7.4,0,13.1-4.68,13.1-14.552V19.051h-5.872v2.383a9.464,9.464,0,0,0-7.4-3.234Zm.511,5.446c3.659,0,7.4,3.149,7.4,8.51,0,5.446-3.744,8.425-7.488,8.425-4,0-7.744-3.234-7.744-8.425.085-5.361,3.914-8.51,7.829-8.51Z" transform="translate(-18.406 -2.698)" fill="#4885ed"/><path d="M183.42,18.1c-7.063,0-13.02,5.616-13.02,13.871a13.48,13.48,0,0,0,13.7,13.956A14.094,14.094,0,0,0,195.759,39.8l-4.851-3.234A7.756,7.756,0,0,1,184.1,40.4a7.069,7.069,0,0,1-6.808-4.255L195.929,28.4l-.936-2.3c-1.872-4.255-6.042-8-11.573-8Zm.17,5.361a5.7,5.7,0,0,1,5.191,2.978L176.272,31.63c-.511-4,3.319-8.169,7.318-8.169Z" transform="translate(-25.351 -2.683)" fill="#db3236"/><path d="M159.9,42.717h6.127V1.7H159.9Z" transform="translate(-23.786 -0.239)" fill="#3cba54"/></g></g></svg>