<svg width="177" height="40" viewBox="0 0 177 40" fill="none" xmlns="http://www.w3.org/2000/svg">
<g clip-path="url(#clip0)">
<path d="M64.507 30.647L59.377 21.327H57.935V30.647H51.917V5.959H62.01C63.7198 5.9088 65.4178 6.25805 66.969 6.979C68.2641 7.57801 69.3444 8.55983 70.064 9.792C70.7507 10.9899 71.1029 12.3503 71.084 13.731C71.1048 15.3115 70.611 16.8558 69.677 18.131C68.6703 19.4841 67.2309 20.4521 65.598 20.874L71.298 30.65L64.507 30.647ZM57.931 17.073H61.659C62.1025 17.1085 62.5487 17.0552 62.9714 16.9163C63.3941 16.7774 63.7849 16.5556 64.121 16.264C64.4129 15.9626 64.6387 15.6036 64.7841 15.21C64.9294 14.8164 64.991 14.3968 64.965 13.978C64.9869 13.5702 64.9231 13.1623 64.7777 12.7806C64.6324 12.3989 64.4086 12.0519 64.121 11.762C63.7849 11.4704 63.3941 11.2486 62.9714 11.1097C62.5487 10.9708 62.1025 10.9175 61.659 10.953H57.931V17.073ZM73.663 20.801C73.6233 18.9679 74.0084 17.1505 74.788 15.491C75.4859 14.0517 76.5694 12.8342 77.918 11.974C79.2367 11.1513 80.7638 10.724 82.318 10.743C83.5773 10.7136 84.8234 11.004 85.94 11.587C86.934 12.0934 87.7725 12.8591 88.367 13.803V11.023H94.377V30.647H88.363V27.868C87.7488 28.808 86.9002 29.5718 85.901 30.084C84.7844 30.667 83.5383 30.9574 82.279 30.928C80.7375 30.943 79.2241 30.5158 77.918 29.697C76.5731 28.8173 75.4915 27.5899 74.788 26.145C74.0104 24.472 73.6253 22.6435 73.662 20.799L73.663 20.801ZM88.363 20.836C88.3984 20.1895 88.3046 19.5425 88.0873 18.9327C87.8699 18.3228 87.5333 17.7624 87.097 17.284C86.714 16.8652 86.2463 16.5327 85.7249 16.3085C85.2035 16.0844 84.6404 15.9738 84.073 15.984C83.5005 15.9757 82.9327 16.0871 82.4057 16.311C81.8788 16.5348 81.4045 16.8662 81.013 17.284C80.5853 17.7596 80.2562 18.3154 80.0449 18.9191C79.8336 19.5228 79.7442 20.1625 79.782 20.801C79.7148 22.1106 80.1558 23.3956 81.013 24.388C81.4045 24.8058 81.8788 25.1372 82.4057 25.3611C82.9327 25.5849 83.5005 25.6963 84.073 25.688C84.6404 25.6982 85.2035 25.5876 85.7249 25.3635C86.2463 25.1393 86.714 24.8068 87.097 24.388C87.5333 23.9093 87.8699 23.3485 88.0871 22.7383C88.3043 22.1281 88.3978 21.4807 88.362 20.834L88.363 20.836ZM104.741 13.803C105.348 12.8693 106.183 12.1064 107.168 11.587C108.285 11.0039 109.531 10.7135 110.79 10.743C112.344 10.7241 113.871 11.1513 115.19 11.974C116.534 12.8296 117.607 14.0492 118.285 15.491C119.088 17.1438 119.486 18.964 119.446 20.801C119.481 22.65 119.08 24.4812 118.277 26.147C117.594 27.5944 116.522 28.8239 115.182 29.699C113.863 30.5217 112.336 30.9489 110.782 30.93C109.523 30.9539 108.278 30.6638 107.16 30.086C106.182 29.5725 105.348 28.8232 104.733 27.906V40.006H98.719V11.023H104.733L104.741 13.803ZM113.322 20.803C113.36 20.1616 113.267 19.5193 113.049 18.9148C112.832 18.3103 112.494 17.7562 112.056 17.286C111.667 16.8647 111.193 16.5309 110.666 16.3067C110.138 16.0826 109.569 15.9733 108.996 15.986C108.424 15.9777 107.856 16.0891 107.329 16.313C106.802 16.5368 106.327 16.8682 105.936 17.286C105.075 18.2625 104.633 19.5383 104.705 20.838C104.633 22.1377 105.075 23.4136 105.936 24.39C106.332 24.8014 106.808 25.1287 107.333 25.3522C107.859 25.5758 108.424 25.691 108.995 25.691C109.567 25.691 110.132 25.5758 110.658 25.3522C111.183 25.1287 111.659 24.8014 112.055 24.39C112.934 23.4068 113.389 22.1161 113.321 20.799L113.322 20.803ZM125.622 8.987C124.671 9.02329 123.741 8.69655 123.022 8.073C122.704 7.77673 122.453 7.41701 122.283 7.01717C122.113 6.61733 122.029 6.18629 122.037 5.752C122.025 5.31709 122.107 4.88466 122.277 4.48414C122.446 4.08363 122.701 3.72444 123.022 3.431C123.731 2.78692 124.665 2.44594 125.622 2.481C126.086 2.4635 126.549 2.53848 126.983 2.70158C127.418 2.86467 127.816 3.11263 128.154 3.431C128.484 3.71913 128.747 4.0765 128.923 4.47767C129.099 4.87884 129.185 5.31394 129.174 5.752C129.18 6.18938 129.092 6.623 128.916 7.02347C128.74 7.42393 128.48 7.78186 128.154 8.073C127.46 8.69531 126.55 9.02186 125.619 8.983L125.622 8.987ZM128.611 11.027V30.647H122.597V11.023L128.611 11.027ZM131.773 20.803C131.733 18.9699 132.118 17.1525 132.898 15.493C133.596 14.0537 134.679 12.8362 136.028 11.976C137.347 11.1533 138.874 10.726 140.428 10.745C141.648 10.7289 142.854 11.0064 143.945 11.554C144.967 12.0441 145.841 12.7963 146.477 13.734V4.622H152.491V30.647H146.477V27.832C145.891 28.7917 145.051 29.5707 144.05 30.083C142.933 30.6661 141.687 30.9564 140.428 30.927C138.874 30.946 137.347 30.5188 136.028 29.696C134.683 28.8163 133.602 27.5889 132.898 26.144C132.12 24.4715 131.734 22.6433 131.77 20.799L131.773 20.803ZM146.473 20.838C146.508 20.1915 146.415 19.5445 146.197 18.9347C145.98 18.3248 145.643 17.7644 145.207 17.286C144.824 16.8672 144.356 16.5347 143.835 16.3105C143.314 16.0864 142.75 15.9758 142.183 15.986C141.611 15.9777 141.043 16.0891 140.516 16.313C139.989 16.5368 139.514 16.8682 139.123 17.286C138.695 17.7616 138.366 18.3174 138.155 18.9211C137.944 19.5248 137.854 20.1645 137.892 20.803C137.825 22.1126 138.266 23.3977 139.123 24.39C139.514 24.8078 139.989 25.1392 140.516 25.3631C141.043 25.5869 141.611 25.6983 142.183 25.69C142.75 25.7002 143.314 25.5896 143.835 25.3655C144.356 25.1413 144.824 24.8088 145.207 24.39C145.643 23.9109 145.98 23.3497 146.196 22.7391C146.413 22.1286 146.506 21.4809 146.47 20.834L146.473 20.838ZM165.773 30.931C163.965 30.957 162.178 30.5341 160.573 29.7C159.06 28.89 157.805 27.6714 156.951 26.183C156.056 24.5465 155.607 22.7029 155.651 20.838C155.611 18.9801 156.072 17.1456 156.987 15.528C157.84 14.0175 159.109 12.7844 160.644 11.976C162.26 11.1667 164.042 10.7453 165.848 10.7453C167.655 10.7453 169.437 11.1667 171.053 11.976C172.588 12.7844 173.857 14.0175 174.71 15.528C175.625 17.1456 176.086 18.9801 176.046 20.838C176.083 22.7113 175.609 24.5591 174.674 26.183C173.806 27.6854 172.524 28.9063 170.981 29.7C169.372 30.5349 167.58 30.9566 165.767 30.927L165.773 30.931ZM165.773 25.731C166.322 25.7394 166.866 25.6309 167.369 25.4126C167.872 25.1943 168.323 24.8712 168.692 24.465C169.126 23.972 169.457 23.3983 169.669 22.7768C169.88 22.1552 169.966 21.498 169.923 20.843C170.009 19.5255 169.579 18.2263 168.723 17.221C168.363 16.8119 167.919 16.486 167.42 16.266C166.922 16.046 166.382 15.9372 165.837 15.947C165.288 15.934 164.742 16.0405 164.238 16.259C163.734 16.4776 163.284 16.8031 162.918 17.213C162.078 18.2255 161.662 19.5231 161.757 20.835C161.67 22.14 162.071 23.4307 162.882 24.457C163.242 24.8643 163.687 25.1884 164.185 25.4069C164.683 25.6253 165.223 25.7328 165.767 25.722L165.773 25.731Z" fill="white"/>
<path fill-rule="evenodd" clip-rule="evenodd" d="M25.0661 29.169C25.0756 29.4455 25.1705 29.7123 25.3377 29.9327C25.505 30.1531 25.7363 30.3163 26.0001 30.4L30.3551 31.586C30.8261 31.7419 31.2463 32.0222 31.5711 32.3974C31.8959 32.7725 32.1132 33.2285 32.2001 33.717L32.2871 34.396L25.5281 33.471C24.4409 33.2773 23.4098 32.8464 22.5081 32.209L12.5161 24.528C10.2315 24.3709 8.06841 23.4408 6.3827 21.8909C4.69698 20.3409 3.58901 18.2634 3.24106 16L1.81206 16.02C1.57415 16.0235 1.33796 15.9794 1.11733 15.8903C0.896709 15.8012 0.696108 15.669 0.52731 15.5013C0.358512 15.3336 0.224918 15.1339 0.134376 14.9138C0.043833 14.6938 -0.001834 14.4579 5.63771e-05 14.22L5.03806 8.546C7.28606 6.017 9.83806 4.373 13.2001 4.373C13.6485 4.37302 14.0965 4.40275 14.5411 4.462C15.0502 4.5052 15.5545 4.59354 16.0481 4.726C22.5551 6.48 27.3401 14.94 27.3401 14.94C27.8257 15.6356 28.523 16.1557 29.3281 16.423L29.6281 16.505C30.0108 16.5877 30.4088 16.5664 30.7805 16.4433C31.1523 16.3202 31.4843 16.0998 31.7421 15.805L33.0901 14.105L28.8001 12C22.9271 9.445 24.5291 2.022 24.5291 2.022C24.5991 1.567 24.9291 1.457 25.2641 1.775L34.5001 10.531L27.0111 2.131C27.0256 1.6799 27.1652 1.24172 27.4144 0.865401C27.6635 0.489085 28.0124 0.18946 28.4221 0L35.6631 11.635L36.2421 12.184L40.0491 14.884C40.5145 15.2557 40.8973 15.7205 41.1728 16.2486C41.4483 16.7767 41.6105 17.3566 41.6491 17.951L41.7001 22.8L41.4151 23.035C41.0126 23.3333 40.5391 23.5212 40.0416 23.58C39.5441 23.6387 39.0399 23.5664 38.5791 23.37L37.2691 22.733C36.5469 22.4264 35.7566 22.3164 34.9782 22.414C34.1998 22.5117 33.4611 22.8135 32.8371 23.289L29.0561 26.477C28.5819 26.8603 28.0623 27.1838 27.5091 27.44C27.4942 24.5028 26.7538 21.6147 25.3535 19.0327C23.9533 16.4507 21.9367 14.2547 19.4831 12.64C19.0191 12.353 18.3301 13.187 18.6711 13.477C23.3711 17.745 25.0711 22.377 25.0711 28.335L25.0661 29.169ZM39.6321 19.688C39.8004 19.6882 39.965 19.6385 40.1051 19.5451C40.2452 19.4517 40.3544 19.3188 40.419 19.1634C40.4836 19.0079 40.5005 18.8367 40.4678 18.6716C40.4351 18.5064 40.3541 18.3547 40.2352 18.2356C40.1162 18.1165 39.9646 18.0353 39.7994 18.0024C39.6343 17.9695 39.4632 17.9863 39.3076 18.0507C39.1521 18.1151 39.0191 18.2241 38.9255 18.3641C38.832 18.5041 38.7821 18.6686 38.7821 18.837C38.7819 18.9487 38.8038 19.0593 38.8465 19.1626C38.8891 19.2658 38.9517 19.3597 39.0307 19.4387C39.1096 19.5177 39.2034 19.5804 39.3065 19.6232C39.4097 19.666 39.5203 19.688 39.6321 19.688V19.688ZM8.31506 35.669V34.762C8.33586 34.2771 8.50138 33.8096 8.79029 33.4196C9.0792 33.0296 9.47826 32.7351 9.93606 32.574C9.93606 32.574 14.6271 31.415 15.9021 29.348L19.4831 32.205C15.9298 33.848 12.1744 35.0129 8.31506 35.669V35.669Z" fill="white"/>
</g>
<defs>
<clipPath id="clip0">
<rect width="176.035" height="40" fill="white"/>
</clipPath>
</defs>
</svg>
