<svg width="500" height="500" viewBox="0 0 500 500" fill="none" xmlns="http://www.w3.org/2000/svg">
<rect width="500" height="500" fill="#1976D2"/>
<path fill-rule="evenodd" clip-rule="evenodd" d="M281.14 333.891C281.21 335.938 281.911 337.912 283.147 339.543C284.382 341.175 286.091 342.383 288.039 343.002L320.205 351.78C323.684 352.934 326.788 355.009 329.187 357.785C331.586 360.562 333.191 363.937 333.832 367.553L334.475 372.578L284.552 365.732C276.523 364.298 268.907 361.109 262.246 356.391L188.445 299.541C171.571 298.378 155.594 291.495 143.143 280.023C130.692 268.551 122.509 253.174 119.939 236.422L109.384 236.57C107.627 236.596 105.882 236.269 104.253 235.61C102.623 234.951 101.142 233.972 99.8948 232.731C98.648 231.49 97.6613 230.012 96.9925 228.383C96.3238 226.755 95.9865 225.009 96.0004 223.248L133.211 181.252C149.815 162.534 168.665 150.366 193.497 150.366C196.809 150.366 200.118 150.586 203.401 151.025C207.162 151.345 210.887 151.999 214.532 152.979C262.593 165.961 297.936 228.577 297.936 228.577C301.523 233.725 306.673 237.575 312.619 239.553L314.835 240.16C317.662 240.772 320.602 240.614 323.347 239.703C326.093 238.792 328.545 237.161 330.449 234.979L340.406 222.397L308.72 206.817C265.341 187.906 277.174 132.966 277.174 132.966C277.691 129.598 280.128 128.784 282.602 131.137L350.82 195.944L295.506 133.772C295.613 130.434 296.644 127.19 298.485 124.405C300.325 121.62 302.902 119.402 305.928 118L359.41 204.115L363.687 208.178L391.806 228.162C395.244 230.913 398.071 234.353 400.106 238.262C402.141 242.171 403.339 246.463 403.623 250.862L404 286.752L401.895 288.491C398.923 290.699 395.425 292.089 391.751 292.524C388.076 292.959 384.352 292.424 380.948 290.97L371.272 286.256C365.939 283.987 360.101 283.172 354.352 283.895C348.602 284.618 343.146 286.852 338.537 290.371L310.61 313.966C307.108 316.804 303.271 319.197 299.184 321.094C299.074 299.354 293.605 277.979 283.263 258.868C272.921 239.758 258.026 223.504 239.903 211.554C236.476 209.429 231.387 215.602 233.906 217.748C268.621 249.338 281.177 283.621 281.177 327.718L281.14 333.891ZM388.726 263.718C389.969 263.72 391.185 263.352 392.22 262.661C393.254 261.969 394.061 260.986 394.538 259.835C395.015 258.685 395.14 257.418 394.899 256.196C394.657 254.973 394.059 253.85 393.18 252.969C392.301 252.087 391.181 251.487 389.962 251.243C388.742 250.999 387.478 251.124 386.329 251.6C385.18 252.077 384.198 252.884 383.507 253.92C382.816 254.956 382.447 256.174 382.447 257.42C382.446 258.247 382.608 259.066 382.923 259.83C383.238 260.594 383.701 261.288 384.284 261.873C384.867 262.458 385.559 262.922 386.321 263.239C387.084 263.555 387.9 263.718 388.726 263.718V263.718ZM157.416 382V375.287C157.569 371.698 158.792 368.238 160.926 365.351C163.06 362.465 166.007 360.285 169.389 359.093C169.389 359.093 204.037 350.515 213.454 335.216L239.903 356.362C213.659 368.522 185.921 377.144 157.416 382V382Z" fill="white"/>
</svg>
