<svg xmlns="http://www.w3.org/2000/svg" xmlns:xlink="http://www.w3.org/1999/xlink" width="636" height="358" viewBox="0 0 636 358"><rect width="100%" height="100%" fill="#DDDDDD"/><path d="M161.49 147.55L142.83 170.39L140.65 173.08Q142.48 172.17 144.59 171.67Q146.70 171.17 149.13 171.17L149.13 171.17Q152.70 171.17 156.07 172.34Q159.44 173.52 162.01 175.89Q164.58 178.26 166.14 181.78Q167.71 185.31 167.71 190.01L167.71 190.01Q167.71 194.40 166.10 198.25Q164.49 202.10 161.57 204.97Q158.66 207.84 154.55 209.49Q150.44 211.15 145.48 211.15L145.48 211.15Q140.43 211.15 136.43 209.54Q132.43 207.93 129.60 205.03Q126.77 202.14 125.27 198.07Q123.77 194.01 123.77 189.05L123.77 189.05Q123.77 184.61 125.58 179.94Q127.38 175.26 131.17 170.21L131.17 170.21L146.17 150.07Q146.96 149.03 148.46 148.29Q149.96 147.55 151.92 147.55L151.92 147.55L161.49 147.55ZM145.26 202.36L145.26 202.36Q147.83 202.36 149.98 201.49Q152.13 200.62 153.68 199.05Q155.22 197.49 156.09 195.38Q156.96 193.27 156.96 190.79L156.96 190.79Q156.96 188.09 156.14 185.94Q155.31 183.78 153.79 182.28Q152.26 180.78 150.13 180.00Q148.00 179.22 145.44 179.22L145.44 179.22Q142.87 179.22 140.78 180.09Q138.69 180.96 137.21 182.50Q135.73 184.05 134.91 186.16Q134.08 188.27 134.08 190.70L134.08 190.70Q134.08 193.31 134.80 195.46Q135.52 197.62 136.93 199.14Q138.34 200.66 140.43 201.51Q142.52 202.36 145.26 202.36ZM180.93 166.08L175.28 165.08Q175.93 160.56 177.80 157.14Q179.67 153.73 182.48 151.44Q185.28 149.16 188.91 148.01Q192.55 146.85 196.72 146.85L196.72 146.85Q201.07 146.85 204.57 148.09Q208.08 149.33 210.56 151.53Q213.03 153.73 214.36 156.68Q215.69 159.64 215.69 163.08L215.69 163.08Q215.69 166.08 215.01 168.36Q214.34 170.65 213.08 172.34Q211.82 174.04 209.95 175.22Q208.08 176.39 205.73 177.17L205.73 177.17Q211.38 178.96 214.17 182.61Q216.95 186.26 216.95 191.79L216.95 191.79Q216.95 196.49 215.21 200.10Q213.47 203.71 210.51 206.17Q207.55 208.62 203.66 209.89Q199.77 211.15 195.42 211.15L195.42 211.15Q190.68 211.15 187.15 210.06Q183.63 208.97 181.02 206.84Q178.41 204.71 176.58 201.62Q174.75 198.53 173.45 194.49L173.45 194.49L178.19 192.53Q180.06 191.75 181.69 192.12Q183.32 192.49 184.06 193.88L184.06 193.88Q184.85 195.40 185.78 196.88Q186.72 198.36 188.02 199.51Q189.33 200.66 191.09 201.38Q192.85 202.10 195.29 202.10L195.29 202.10Q198.03 202.10 200.07 201.21Q202.12 200.31 203.49 198.88Q204.86 197.44 205.53 195.68Q206.20 193.92 206.20 192.14L206.20 192.14Q206.20 189.88 205.73 188.03Q205.25 186.18 203.73 184.87Q202.20 183.57 199.35 182.83Q196.50 182.09 191.72 182.09L191.72 182.09L191.72 174.43Q195.68 174.39 198.29 173.69Q200.90 173.00 202.44 171.76Q203.99 170.52 204.60 168.78Q205.20 167.04 205.20 164.95L205.20 164.95Q205.20 160.51 202.72 158.21Q200.25 155.90 196.11 155.90L196.11 155.90Q194.20 155.90 192.59 156.45Q190.98 156.99 189.70 157.97Q188.41 158.95 187.54 160.25Q186.67 161.56 186.24 163.12L186.24 163.12Q185.50 165.12 184.30 165.78Q183.11 166.43 180.93 166.08L180.93 166.08ZM262.41 147.55L243.75 170.39L241.57 173.08Q243.40 172.17 245.51 171.67Q247.62 171.17 250.05 171.17L250.05 171.17Q253.62 171.17 256.99 172.34Q260.36 173.52 262.93 175.89Q265.50 178.26 267.06 181.78Q268.63 185.31 268.63 190.01L268.63 190.01Q268.63 194.40 267.02 198.25Q265.41 202.10 262.49 204.97Q259.58 207.84 255.47 209.49Q251.36 211.15 246.40 211.15L246.40 211.15Q241.35 211.15 237.35 209.54Q233.35 207.93 230.52 205.03Q227.69 202.14 226.19 198.07Q224.69 194.01 224.69 189.05L224.69 189.05Q224.69 184.61 226.50 179.94Q228.30 175.26 232.09 170.21L232.09 170.21L247.09 150.07Q247.88 149.03 249.38 148.29Q250.88 147.55 252.84 147.55L252.84 147.55L262.41 147.55ZM246.18 202.36L246.18 202.36Q248.75 202.36 250.90 201.49Q253.05 200.62 254.60 199.05Q256.14 197.49 257.01 195.38Q257.88 193.27 257.88 190.79L257.88 190.79Q257.88 188.09 257.06 185.94Q256.23 183.78 254.71 182.28Q253.19 180.78 251.05 180.00Q248.92 179.22 246.36 179.22L246.36 179.22Q243.79 179.22 241.70 180.09Q239.61 180.96 238.13 182.50Q236.66 184.05 235.83 186.16Q235.00 188.27 235.00 190.70L235.00 190.70Q235.00 193.31 235.72 195.46Q236.44 197.62 237.85 199.14Q239.26 200.66 241.35 201.51Q243.44 202.36 246.18 202.36ZM338.40 196.05L332.70 201.66L317.96 186.92L303.08 201.75L297.38 196.14L312.26 181.22L298.08 167.04L303.73 161.38L317.91 175.56L332.01 161.47L337.75 167.12L323.61 181.26L338.40 196.05ZM374.59 166.08L368.94 165.08Q369.59 160.56 371.46 157.14Q373.33 153.73 376.14 151.44Q378.94 149.16 382.58 148.01Q386.21 146.85 390.38 146.85L390.38 146.85Q394.73 146.85 398.24 148.09Q401.74 149.33 404.22 151.53Q406.70 153.73 408.02 156.68Q409.35 159.64 409.35 163.08L409.35 163.08Q409.35 166.08 408.68 168.36Q408.00 170.65 406.74 172.34Q405.48 174.04 403.61 175.22Q401.74 176.39 399.39 177.17L399.39 177.17Q405.04 178.96 407.83 182.61Q410.61 186.26 410.61 191.79L410.61 191.79Q410.61 196.49 408.87 200.10Q407.13 203.71 404.17 206.17Q401.22 208.62 397.32 209.89Q393.43 211.15 389.08 211.15L389.08 211.15Q384.34 211.15 380.81 210.06Q377.29 208.97 374.68 206.84Q372.07 204.71 370.24 201.62Q368.42 198.53 367.11 194.49L367.11 194.49L371.85 192.53Q373.72 191.75 375.35 192.12Q376.99 192.49 377.73 193.88L377.73 193.88Q378.51 195.40 379.44 196.88Q380.38 198.36 381.68 199.51Q382.99 200.66 384.75 201.38Q386.51 202.10 388.95 202.10L388.95 202.10Q391.69 202.10 393.73 201.21Q395.78 200.31 397.15 198.88Q398.52 197.44 399.19 195.68Q399.87 193.92 399.87 192.14L399.87 192.14Q399.87 189.88 399.39 188.03Q398.91 186.18 397.39 184.87Q395.87 183.57 393.02 182.83Q390.17 182.09 385.38 182.09L385.38 182.09L385.38 174.43Q389.34 174.39 391.95 173.69Q394.56 173.00 396.10 171.76Q397.65 170.52 398.26 168.78Q398.87 167.04 398.87 164.95L398.87 164.95Q398.87 160.51 396.39 158.21Q393.91 155.90 389.78 155.90L389.78 155.90Q387.86 155.90 386.25 156.45Q384.64 156.99 383.36 157.97Q382.08 158.95 381.21 160.25Q380.34 161.56 379.90 163.12L379.90 163.12Q379.16 165.12 377.96 165.78Q376.77 166.43 374.59 166.08L374.59 166.08ZM434.58 157.29L432.36 170.39Q434.45 169.95 436.36 169.76Q438.28 169.56 440.06 169.56L440.06 169.56Q445.02 169.56 448.80 171.04Q452.59 172.52 455.16 175.13Q457.72 177.74 459.03 181.24Q460.33 184.74 460.33 188.79L460.33 188.79Q460.33 193.79 458.57 197.92Q456.81 202.06 453.68 204.99Q450.54 207.93 446.26 209.54Q441.98 211.15 436.93 211.15L436.93 211.15Q433.97 211.15 431.32 210.54Q428.66 209.93 426.34 208.91Q424.01 207.88 422.03 206.56Q420.05 205.23 418.49 203.75L418.49 203.75L421.79 199.18Q422.84 197.71 424.53 197.71L424.53 197.71Q425.62 197.71 426.75 198.40Q427.88 199.10 429.34 199.92Q430.80 200.75 432.77 201.45Q434.75 202.14 437.54 202.14L437.54 202.14Q440.50 202.14 442.76 201.19Q445.02 200.23 446.52 198.51Q448.02 196.79 448.78 194.42Q449.54 192.05 449.54 189.27L449.54 189.27Q449.54 184.13 446.56 181.24Q443.58 178.35 437.76 178.35L437.76 178.35Q433.28 178.35 428.58 180.00L428.58 180.00L421.88 178.09L427.10 147.55L458.16 147.55L458.16 152.12Q458.16 154.42 456.72 155.86Q455.29 157.29 451.85 157.29L451.85 157.29L434.58 157.29ZM490.39 202.75L490.39 202.75Q493.04 202.75 495.05 201.99Q497.05 201.23 498.42 199.88Q499.79 198.53 500.48 196.66Q501.18 194.79 501.18 192.62L501.18 192.62Q501.18 187.44 498.31 184.79Q495.44 182.13 490.39 182.13L490.39 182.13Q485.34 182.13 482.47 184.79Q479.60 187.44 479.60 192.62L479.60 192.62Q479.60 194.79 480.30 196.66Q480.99 198.53 482.36 199.88Q483.74 201.23 485.74 201.99Q487.74 202.75 490.39 202.75ZM490.39 154.94L490.39 154.94Q488.00 154.94 486.26 155.68Q484.52 156.42 483.37 157.66Q482.21 158.90 481.67 160.51Q481.13 162.12 481.13 163.91L481.13 163.91Q481.13 165.78 481.58 167.54Q482.04 169.30 483.13 170.67Q484.21 172.04 486.00 172.87Q487.78 173.69 490.39 173.69L490.39 173.69Q493.00 173.69 494.78 172.87Q496.57 172.04 497.66 170.67Q498.74 169.30 499.20 167.54Q499.66 165.78 499.66 163.91L499.66 163.91Q499.66 162.12 499.09 160.51Q498.53 158.90 497.39 157.66Q496.26 156.42 494.52 155.68Q492.78 154.94 490.39 154.94ZM501.00 177.65L501.00 177.65Q506.75 179.52 509.49 183.37Q512.23 187.22 512.23 192.79L512.23 192.79Q512.23 196.97 510.64 200.36Q509.05 203.75 506.18 206.14Q503.31 208.54 499.29 209.84Q495.26 211.15 490.39 211.15L490.39 211.15Q485.52 211.15 481.49 209.84Q477.47 208.54 474.60 206.14Q471.73 203.75 470.14 200.36Q468.55 196.97 468.55 192.79L468.55 192.79Q468.55 187.22 471.29 183.37Q474.03 179.52 479.78 177.65L479.78 177.65Q475.21 175.74 472.93 172.21Q470.64 168.69 470.64 163.73L470.64 163.73Q470.64 160.16 472.10 157.08Q473.56 153.99 476.17 151.70Q478.78 149.42 482.41 148.14Q486.04 146.85 490.39 146.85L490.39 146.85Q494.74 146.85 498.37 148.14Q502.01 149.42 504.62 151.70Q507.23 153.99 508.68 157.08Q510.14 160.16 510.14 163.73L510.14 163.73Q510.14 168.69 507.86 172.21Q505.57 175.74 501.00 177.65Z" fill="#999999"/></svg>