<svg width="56" height="56" viewBox="0 0 56 56" fill="none" xmlns="http://www.w3.org/2000/svg">
<path d="M28 56C43.464 56 56 43.464 56 28C56 12.536 43.464 0 28 0C12.536 0 0 12.536 0 28C0 43.464 12.536 56 28 56Z" fill="#FFC400"/>
<path d="M43.2507 14.656C43.2189 14.5374 43.1468 14.4335 43.0469 14.362C42.947 14.2905 42.8253 14.2559 42.7027 14.264C40.2265 14.4532 37.8149 15.1461 35.6157 16.3C32.656 14.2555 29.0267 13.4196 25.4707 13.9633C21.9148 14.5071 18.7011 16.3894 16.4876 19.2249C14.274 22.0605 13.2279 25.6349 13.5635 29.2165C13.899 32.7981 15.5907 36.116 18.2925 38.4911C20.9942 40.8662 24.5015 42.1188 28.0966 41.9926C31.6916 41.8665 35.1025 40.371 37.6311 37.8123C40.1596 35.2536 41.6146 31.8253 41.6982 28.229C41.7818 24.6327 40.4877 21.1404 38.0807 18.467C39.5725 17.2099 41.2079 16.1337 42.9527 15.261C43.0666 15.2126 43.1593 15.1248 43.214 15.0138C43.2687 14.9028 43.2817 14.7759 43.2507 14.656V14.656ZM39.6107 27.9C39.6107 30.2756 38.9063 32.5978 37.5865 34.573C36.2667 36.5482 34.3909 38.0877 32.1962 38.9968C30.0014 39.9058 27.5864 40.1437 25.2565 39.6803C22.9266 39.2168 20.7865 38.0729 19.1067 36.3931C17.4269 34.7133 16.283 32.5732 15.8195 30.2433C15.3561 27.9134 15.5939 25.4984 16.503 23.3036C17.4121 21.1089 18.9516 19.233 20.9268 17.9133C22.902 16.5935 25.2242 15.889 27.5997 15.889C29.7135 15.883 31.7905 16.442 33.6157 17.508C29.884 20.2048 27.0448 23.9568 25.4637 28.281C24.8097 27.3115 23.9219 26.5224 22.8823 25.9867C21.8427 25.451 20.6849 25.186 19.5157 25.216C18.8488 25.2098 18.1837 25.2887 17.5367 25.451C17.4381 25.4777 17.3497 25.5331 17.2827 25.6102C17.2158 25.6873 17.1733 25.7827 17.1607 25.884C17.1477 25.9853 17.1645 26.0882 17.209 26.18C17.2536 26.2719 17.3241 26.3487 17.4117 26.401C20.5832 28.4598 23.0772 31.4081 24.5817 34.877C24.6928 35.1299 24.8746 35.3452 25.1053 35.4971C25.3359 35.649 25.6056 35.7309 25.8817 35.733C26.1948 35.7299 26.4983 35.6254 26.7469 35.4352C26.9955 35.245 27.1758 34.9793 27.2607 34.678C29.0063 29.0166 32.1955 23.907 36.5147 19.852C38.5166 22.0533 39.6212 24.9247 39.6107 27.9Z" fill="black" fill-opacity="0.87"/>
</svg>
