<svg width="56" height="56" viewBox="0 0 56 56" fill="none" xmlns="http://www.w3.org/2000/svg">
<path d="M28 56C43.464 56 56 43.464 56 28C56 12.536 43.464 0 28 0C12.536 0 0 12.536 0 28C0 43.464 12.536 56 28 56Z" fill="#FFC400"/>
<path d="M28.759 24.8579H21.84C21.7189 24.8579 21.599 24.8818 21.4871 24.9281C21.3753 24.9744 21.2736 25.0423 21.188 25.128C21.1024 25.2136 21.0345 25.3152 20.9882 25.4271C20.9418 25.5389 20.918 25.6588 20.918 25.7799V40.0799C20.918 40.201 20.9418 40.3209 20.9882 40.4327C21.0345 40.5446 21.1024 40.6462 21.188 40.7319C21.2736 40.8175 21.3753 40.8854 21.4871 40.9317C21.599 40.9781 21.7189 41.0019 21.84 41.0019H28.758C29.0025 41.0019 29.237 40.9048 29.4099 40.7319C29.5828 40.559 29.68 40.3244 29.68 40.0799V25.7799C29.68 25.5356 29.583 25.3012 29.4103 25.1283C29.2376 24.9554 29.0033 24.8582 28.759 24.8579V24.8579ZM26.398 25.8959C26.4664 25.8959 26.5333 25.9162 26.5902 25.9542C26.6471 25.9922 26.6914 26.0463 26.7176 26.1095C26.7438 26.1727 26.7507 26.2423 26.7373 26.3094C26.724 26.3765 26.691 26.4382 26.6426 26.4866C26.5942 26.535 26.5326 26.5679 26.4655 26.5813C26.3984 26.5946 26.3288 26.5878 26.2656 26.5616C26.2023 26.5354 26.1483 26.491 26.1103 26.4341C26.0723 26.3772 26.052 26.3103 26.052 26.2419C26.052 26.1501 26.0884 26.0621 26.1533 25.9973C26.2182 25.9324 26.3062 25.8959 26.398 25.8959V25.8959ZM24.092 26.0109H25.018C25.0495 26.0088 25.0812 26.0133 25.1109 26.0239C25.1407 26.0345 25.168 26.0512 25.191 26.0728C25.2141 26.0944 25.2325 26.1205 25.2451 26.1495C25.2577 26.1785 25.2642 26.2098 25.2642 26.2414C25.2642 26.273 25.2577 26.3043 25.2451 26.3333C25.2325 26.3623 25.2141 26.3884 25.191 26.41C25.168 26.4316 25.1407 26.4483 25.1109 26.4589C25.0812 26.4696 25.0495 26.474 25.018 26.4719H24.096C24.0644 26.474 24.0328 26.4696 24.003 26.4589C23.9732 26.4483 23.946 26.4316 23.9229 26.41C23.8998 26.3884 23.8814 26.3623 23.8688 26.3333C23.8563 26.3043 23.8498 26.273 23.8498 26.2414C23.8498 26.2098 23.8563 26.1785 23.8688 26.1495C23.8814 26.1205 23.8998 26.0944 23.9229 26.0728C23.946 26.0512 23.9732 26.0345 24.003 26.0239C24.0328 26.0133 24.0644 26.0088 24.096 26.0109H24.092ZM25.299 40.0779C25.1621 40.0779 25.0283 40.0373 24.9145 39.9613C24.8007 39.8853 24.712 39.7772 24.6596 39.6507C24.6073 39.5243 24.5936 39.3851 24.6203 39.2509C24.647 39.1167 24.7129 38.9934 24.8097 38.8966C24.9064 38.7998 25.0297 38.7339 25.164 38.7072C25.2982 38.6805 25.4373 38.6942 25.5638 38.7466C25.6902 38.799 25.7983 38.8877 25.8743 39.0015C25.9504 39.1153 25.991 39.249 25.991 39.3859C25.991 39.5694 25.9181 39.7455 25.7883 39.8752C25.6585 40.005 25.4825 40.0779 25.299 40.0779ZM22.299 37.7719V27.6249H28.299V37.7719H22.299Z" fill="black" fill-opacity="0.87"/>
<path d="M25.991 20.707H14.922C14.6775 20.707 14.443 20.8042 14.27 20.9771C14.0971 21.15 14 21.3845 14 21.629V38.229C14 38.4736 14.0971 38.7081 14.27 38.881C14.443 39.0539 14.6775 39.151 14.922 39.151H20V35.461H15.384V23.474H25.53V23.935H26.914V21.629C26.914 21.5079 26.8901 21.3879 26.8437 21.276C26.7973 21.164 26.7293 21.0624 26.6436 20.9767C26.5579 20.8911 26.4561 20.8232 26.3441 20.7769C26.2322 20.7307 26.1122 20.7069 25.991 20.707V20.707ZM20 22.552C19.9088 22.552 19.8197 22.525 19.7439 22.4743C19.6681 22.4237 19.609 22.3517 19.5741 22.2674C19.5392 22.1832 19.5301 22.0905 19.5479 22.0011C19.5656 21.9117 19.6096 21.8295 19.674 21.7651C19.7385 21.7006 19.8206 21.6567 19.9101 21.6389C19.9995 21.6211 20.0922 21.6302 20.1764 21.6651C20.2607 21.7 20.3327 21.7591 20.3833 21.8349C20.434 21.9107 20.461 21.9999 20.461 22.091C20.461 22.2133 20.4124 22.3306 20.326 22.417C20.2395 22.5035 20.1223 22.552 20 22.552V22.552Z" fill="black" fill-opacity="0.87"/>
<path d="M40.7497 15.6338H16.7667C16.5222 15.6338 16.2877 15.7309 16.1148 15.9038C15.9419 16.0767 15.8447 16.3113 15.8447 16.5558V19.7848H17.2287V17.0178H40.2887V30.8538H30.6037V38.2338H34.2937V36.8498C34.0511 36.8503 33.8108 36.803 33.5864 36.7105C33.3621 36.618 33.1583 36.4822 32.9865 36.3108C32.8148 36.1394 32.6785 35.9359 32.5856 35.7118C32.4926 35.4877 32.4447 35.2474 32.4447 35.0048H40.7447C40.9893 35.0048 41.2238 34.9076 41.3967 34.7347C41.5696 34.5618 41.6667 34.3273 41.6667 34.0828V16.5558C41.6667 16.3121 41.5703 16.0784 41.3984 15.9056C41.2266 15.7328 40.9934 15.6351 40.7497 15.6338Z" fill="black" fill-opacity="0.87"/>
</svg>
