<svg width="56" height="56" viewBox="0 0 56 56" fill="none" xmlns="http://www.w3.org/2000/svg">
<path d="M28 56C43.464 56 56 43.464 56 28C56 12.536 43.464 0 28 0C12.536 0 0 12.536 0 28C0 43.464 12.536 56 28 56Z" fill="#FFC400"/>
<path d="M16.0555 21.1169H20.4805V23.0779C20.4805 23.2105 20.5331 23.3377 20.6269 23.4314C20.7207 23.5252 20.8478 23.5779 20.9805 23.5779H24.2395C24.3721 23.5779 24.4992 23.5252 24.593 23.4314C24.6868 23.3377 24.7395 23.2105 24.7395 23.0779V16.6089C24.7395 16.4763 24.6868 16.3491 24.593 16.2553C24.4992 16.1616 24.3721 16.1089 24.2395 16.1089H21.0105C20.8778 16.1089 20.7507 16.1616 20.6569 16.2553C20.5631 16.3491 20.5105 16.4763 20.5105 16.6089V18.5729H16.0555C15.9083 18.5739 15.7675 18.6328 15.6635 18.7369C15.5594 18.8409 15.5005 18.9817 15.4995 19.1289V20.5289C15.4965 20.6042 15.5086 20.6794 15.5351 20.7499C15.5616 20.8205 15.602 20.8851 15.6538 20.9398C15.7056 20.9946 15.7678 21.0385 15.8367 21.0689C15.9057 21.0993 15.9801 21.1156 16.0555 21.1169V21.1169Z" fill="black" fill-opacity="0.87"/>
<path d="M40.1133 18.5728H26.3623V21.1168H40.0873C40.2344 21.1157 40.3753 21.0568 40.4793 20.9528C40.5833 20.8487 40.6423 20.7079 40.6433 20.5608V19.1608C40.6515 19.0864 40.6439 19.0112 40.6209 18.9401C40.598 18.8689 40.5602 18.8034 40.5102 18.7479C40.4601 18.6924 40.3989 18.6481 40.3305 18.6179C40.2621 18.5877 40.1881 18.5723 40.1133 18.5728V18.5728Z" fill="black" fill-opacity="0.87"/>
<path d="M40.1142 26.9458H35.1592V29.4898H40.0872C40.2343 29.4888 40.3751 29.4298 40.4792 29.3258C40.5832 29.2218 40.6421 29.0809 40.6432 28.9338V27.5338C40.6514 27.4596 40.6438 27.3845 40.6209 27.3134C40.598 27.2423 40.5603 27.1768 40.5104 27.1213C40.4604 27.0658 40.3993 27.0215 40.331 26.9912C40.2628 26.961 40.1889 26.9455 40.1142 26.9458V26.9458Z" fill="black" fill-opacity="0.87"/>
<path d="M16.0556 29.4899H29.2776V31.4509C29.2776 31.5835 29.3303 31.7107 29.424 31.8045C29.5178 31.8983 29.645 31.9509 29.7776 31.9509H33.0396C33.1722 31.9509 33.2994 31.8983 33.3931 31.8045C33.4869 31.7107 33.5396 31.5835 33.5396 31.4509V24.9819C33.5396 24.8493 33.4869 24.7221 33.3931 24.6284C33.2994 24.5346 33.1722 24.4819 33.0396 24.4819H29.8076C29.675 24.4819 29.5478 24.5346 29.454 24.6284C29.3603 24.7221 29.3076 24.8493 29.3076 24.9819V26.9429H16.0556C15.9084 26.944 15.7676 27.0029 15.6636 27.1069C15.5595 27.211 15.5006 27.3518 15.4996 27.4989V28.8989C15.4962 28.9745 15.5081 29.05 15.5344 29.1209C15.5607 29.1918 15.6009 29.2567 15.6528 29.3118C15.7046 29.3669 15.767 29.4111 15.8361 29.4417C15.9053 29.4723 15.9799 29.4887 16.0556 29.4899V29.4899Z" fill="black" fill-opacity="0.87"/>
<path d="M40.1133 35.3188H26.3623V37.8628H40.0873C40.2344 37.8618 40.3753 37.8029 40.4793 37.6988C40.5833 37.5948 40.6423 37.454 40.6433 37.3068V35.9068C40.6492 35.833 40.6399 35.7587 40.6161 35.6886C40.5923 35.6184 40.5544 35.5538 40.5048 35.4988C40.4552 35.4438 40.3949 35.3994 40.3276 35.3685C40.2603 35.3375 40.1874 35.3207 40.1133 35.3188V35.3188Z" fill="black" fill-opacity="0.87"/>
<path d="M24.244 32.8541H21.011C20.8784 32.8541 20.7512 32.9068 20.6574 33.0005C20.5637 33.0943 20.511 33.2215 20.511 33.3541V35.3151H16.056C15.9089 35.3161 15.7681 35.3751 15.664 35.4791C15.56 35.5831 15.501 35.724 15.5 35.8711V37.2711C15.501 37.4182 15.56 37.559 15.664 37.6631C15.7681 37.7671 15.9089 37.826 16.056 37.8271H20.481V39.7881C20.481 39.9207 20.5337 40.0479 20.6274 40.1416C20.7212 40.2354 20.8484 40.2881 20.981 40.2881H24.24C24.3726 40.2881 24.4998 40.2354 24.5936 40.1416C24.6873 40.0479 24.74 39.9207 24.74 39.7881V33.3541C24.7418 33.2883 24.7302 33.2228 24.7059 33.1616C24.6817 33.1004 24.6453 33.0448 24.5989 32.998C24.5526 32.9513 24.4972 32.9144 24.4362 32.8897C24.3752 32.865 24.3098 32.8529 24.244 32.8541V32.8541Z" fill="black" fill-opacity="0.87"/>
</svg>
