<svg width="56" height="56" viewBox="0 0 56 56" fill="none" xmlns="http://www.w3.org/2000/svg">
<path d="M28 56C43.464 56 56 43.464 56 28C56 12.536 43.464 0 28 0C12.536 0 0 12.536 0 28C0 43.464 12.536 56 28 56Z" fill="#FFC400"/>
<path d="M14.1508 37.4451L14.4918 37.3451C14.1022 35.183 14.2359 32.959 14.8818 30.8591C15.1827 29.8509 15.6087 28.8844 16.1498 27.9821C16.684 27.1261 17.3039 26.3267 17.9998 25.5961C18.2151 25.3718 18.4432 25.1601 18.6828 24.9621L17.2228 22.6211C14.9856 25.0338 13.6137 28.1216 13.3228 31.3991C13.1279 33.2693 13.3102 35.1596 13.8588 36.9581C13.9197 37.1454 14.0015 37.3252 14.1028 37.4941H14.1518L14.1508 37.4451Z" fill="black" fill-opacity="0.87"/>
<path d="M38.2899 21.646C37.6622 21.0576 36.976 20.5349 36.2419 20.086C34.2482 18.8443 31.996 18.0769 29.6589 17.843C26.255 17.5126 22.842 18.3743 20.0029 20.281L21.7099 23.061C22.0916 22.8934 22.4822 22.7469 22.8799 22.622C23.7515 22.3454 24.651 22.1657 25.5619 22.086C26.4406 22.0219 27.3237 22.0554 28.1949 22.186C29.8425 22.4589 31.3989 23.1285 32.7299 24.137C32.8759 24.283 33.0709 24.381 33.2179 24.527L38.2899 21.65V21.646Z" fill="black" fill-opacity="0.87"/>
<path d="M43.1689 34.1299C43.0762 35.295 42.8305 36.4429 42.4379 37.5439L42.2919 37.4949L35.1689 35.2509C35.4906 34.736 35.7368 34.1776 35.8999 33.5929C36.0882 32.9752 36.2026 32.3374 36.2409 31.6929V30.9129L41.2689 25.4009C42.7913 28.0434 43.4552 31.0936 43.1689 34.1299V34.1299Z" fill="black" fill-opacity="0.87"/>
<path d="M39.8024 23.548C39.7534 23.402 39.5584 23.402 39.4614 23.448L26.3434 30.716C26.0954 30.8671 25.8662 31.0471 25.6604 31.252C25.1899 31.7909 24.9499 32.4931 24.9921 33.2072C25.0343 33.9214 25.3553 34.5904 25.886 35.0701C26.4168 35.5498 27.1147 35.8019 27.8295 35.7719C28.5443 35.742 29.2187 35.4324 29.7074 34.91L39.8014 23.84C39.8514 23.743 39.8994 23.645 39.8024 23.548ZM27.5134 34.617C27.2371 34.5937 26.974 34.4888 26.7573 34.3158C26.5407 34.1427 26.3803 33.9092 26.2966 33.6448C26.2128 33.3805 26.2095 33.0972 26.2869 32.831C26.3644 32.5647 26.5191 32.3275 26.7316 32.1493C26.9441 31.9711 27.2047 31.86 27.4803 31.8301C27.756 31.8003 28.0343 31.8529 28.2801 31.9814C28.5258 32.1099 28.7278 32.3085 28.8605 32.552C28.9932 32.7955 29.0506 33.0729 29.0254 33.349C29.0156 33.5338 28.9678 33.7146 28.8851 33.8802C28.8024 34.0457 28.6866 34.1925 28.5448 34.3114C28.403 34.4303 28.2383 34.5188 28.0609 34.5714C27.8834 34.624 27.6971 34.6395 27.5134 34.617Z" fill="black" fill-opacity="0.87"/>
</svg>
