<svg width="56" height="56" viewBox="0 0 56 56" fill="none" xmlns="http://www.w3.org/2000/svg">
<path d="M28 56C43.464 56 56 43.464 56 28C56 12.536 43.464 0 28 0C12.536 0 0 12.536 0 28C0 43.464 12.536 56 28 56Z" fill="#FFC400"/>
<path d="M34.6877 15.106C34.0457 15.1083 33.4139 15.2672 32.8473 15.569C32.2806 15.8709 31.7962 16.3065 31.4361 16.838C31.0761 17.3696 30.8512 17.981 30.7811 18.6191C30.7109 19.2573 30.7976 19.9029 31.0337 20.5L23.5607 24.644C22.9968 24.134 22.297 23.7986 21.5462 23.6787C20.7953 23.5588 20.0259 23.6595 19.3312 23.9685C18.6365 24.2776 18.0465 24.7817 17.6328 25.4197C17.2192 26.0576 16.9997 26.802 17.001 27.5623C17.0023 28.3226 17.2244 29.0662 17.6402 29.7028C18.056 30.3393 18.6478 30.8414 19.3435 31.1481C20.0393 31.4547 20.8091 31.5528 21.5595 31.4303C22.3099 31.3078 23.0086 30.97 23.5707 30.458L31.0427 34.604C30.8531 35.0688 30.7556 35.566 30.7557 36.068C30.7526 36.9928 31.0745 37.8893 31.6652 38.6009C32.2559 39.3125 33.0778 39.7939 33.9873 39.9611C34.8969 40.1283 35.8363 39.9707 36.6415 39.5157C37.4466 39.0608 38.0663 38.3374 38.3924 37.472C38.7184 36.6066 38.73 35.6541 38.4252 34.781C38.1205 33.9079 37.5186 33.1696 36.7248 32.6951C35.931 32.2206 34.9958 32.04 34.0824 32.1849C33.169 32.3299 32.3356 32.7911 31.7277 33.488L24.3887 29.414C24.6977 28.8417 24.8595 28.2015 24.8595 27.551C24.8595 26.9006 24.6977 26.2603 24.3887 25.688L31.7277 21.614C32.1598 22.1094 32.7093 22.4884 33.3259 22.7164C33.9425 22.9443 34.6065 23.0138 35.2569 22.9186C35.9074 22.8233 36.5235 22.5664 37.0489 22.1713C37.5742 21.7761 37.992 21.2554 38.264 20.6569C38.5359 20.0584 38.6533 19.4013 38.6054 18.7457C38.5575 18.09 38.3457 17.4569 37.9897 16.9043C37.6336 16.3517 37.1445 15.8974 36.5673 15.5828C35.99 15.2683 35.3431 15.1036 34.6857 15.104L34.6877 15.106Z" fill="black" fill-opacity="0.87"/>
</svg>
