<svg width="56" height="56" viewBox="0 0 56 56" fill="none" xmlns="http://www.w3.org/2000/svg">
<path d="M28 56C43.464 56 56 43.464 56 28C56 12.536 43.464 0 28 0C12.536 0 0 12.536 0 28C0 43.464 12.536 56 28 56Z" fill="#FFC400"/>
<path d="M26.1565 16.9962L25.8925 18.6052C25.881 18.6994 25.8956 18.795 25.9349 18.8815C25.9741 18.9679 26.0364 19.0419 26.1149 19.0953C26.1934 19.1488 26.2851 19.1795 26.3799 19.1842C26.4748 19.189 26.5691 19.1675 26.6525 19.1222L28.0025 18.3932L29.3525 19.1432C29.4385 19.1903 29.5361 19.2121 29.6339 19.206C29.7318 19.1999 29.8259 19.1663 29.9054 19.109C29.9849 19.0516 30.0466 18.9729 30.0832 18.882C30.1199 18.7911 30.13 18.6916 30.1125 18.5952L29.8485 16.9812L30.9605 15.8432C31.0264 15.7754 31.0723 15.6907 31.0931 15.5985C31.1138 15.5063 31.1087 15.4101 31.0781 15.3206C31.0476 15.2312 30.9928 15.1519 30.92 15.0916C30.8472 15.0314 30.7591 14.9924 30.6655 14.9792L29.1495 14.7462L28.4735 13.3052C28.4324 13.2149 28.3662 13.1383 28.2827 13.0847C28.1993 13.031 28.1022 13.0024 28.003 13.0024C27.9038 13.0024 27.8067 13.031 27.7233 13.0847C27.6398 13.1383 27.5736 13.2149 27.5325 13.3052L26.8545 14.7532L25.3385 14.9862C25.2449 14.9994 25.1568 15.0384 25.084 15.0986C25.0112 15.1589 24.9564 15.2382 24.9259 15.3276C24.8954 15.4171 24.8902 15.5133 24.9109 15.6055C24.9317 15.6977 24.9776 15.7824 25.0435 15.8502L26.1565 16.9962Z" fill="black" fill-opacity="0.87"/>
<path d="M30.6665 38.7791L29.1505 38.5461L28.4735 37.1001C28.4324 37.0098 28.3662 36.9333 28.2827 36.8796C28.1993 36.8259 28.1022 36.7974 28.003 36.7974C27.9038 36.7974 27.8067 36.8259 27.7233 36.8796C27.6398 36.9333 27.5736 37.0098 27.5325 37.1001L26.8545 38.5481L25.3385 38.7811C25.2449 38.7944 25.1568 38.8333 25.084 38.8936C25.0112 38.9538 24.9564 39.0331 24.9259 39.1226C24.8954 39.212 24.8902 39.3082 24.9109 39.4004C24.9317 39.4926 24.9776 39.5773 25.0435 39.6451L26.1555 40.7831L25.8915 42.3971C25.88 42.4913 25.8946 42.5869 25.9339 42.6734C25.9731 42.7599 26.0354 42.8339 26.1139 42.8873C26.1924 42.9407 26.2841 42.9714 26.3789 42.9762C26.4738 42.9809 26.5681 42.9594 26.6515 42.9141L28.0015 42.1951L29.3515 42.9451C29.4375 42.9922 29.5351 43.014 29.6329 43.0079C29.7308 43.0019 29.8249 42.9682 29.9044 42.9109C29.9839 42.8535 30.0456 42.7749 30.0822 42.6839C30.1189 42.593 30.129 42.4935 30.1115 42.3971L29.8475 40.7831L30.9595 39.6451C31.0254 39.5773 31.0713 39.4926 31.0921 39.4004C31.1128 39.3082 31.1077 39.212 31.0771 39.1226C31.0466 39.0331 30.9918 38.9538 30.919 38.8936C30.8462 38.8333 30.7581 38.7944 30.6645 38.7811L30.6665 38.7791Z" fill="black" fill-opacity="0.87"/>
<path d="M17.7001 31.1031C17.7761 31.1036 17.8514 31.0873 17.9204 31.0554C17.9894 31.0235 18.0506 30.9768 18.0995 30.9185C18.1484 30.8602 18.1838 30.7919 18.2033 30.7184C18.2228 30.6448 18.2258 30.5679 18.2121 30.4931L17.9481 28.8791L19.0601 27.7411C19.126 27.6734 19.1719 27.5887 19.1926 27.4965C19.2134 27.4042 19.2082 27.3081 19.1777 27.2186C19.1471 27.1291 19.0924 27.0499 19.0196 26.9896C18.9468 26.9293 18.8587 26.8904 18.7651 26.8771L17.2491 26.6441L16.5751 25.2031C16.534 25.1128 16.4677 25.0363 16.3843 24.9826C16.3009 24.9289 16.2038 24.9004 16.1046 24.9004C16.0054 24.9004 15.9083 24.9289 15.8248 24.9826C15.7414 25.0363 15.6752 25.1128 15.6341 25.2031L14.9561 26.6511L13.4401 26.8841C13.3465 26.8974 13.2584 26.9363 13.1856 26.9966C13.1127 27.0569 13.058 27.1361 13.0275 27.2256C12.9969 27.3151 12.9917 27.4112 13.0125 27.5035C13.0333 27.5957 13.0791 27.6804 13.1451 27.7481L14.2571 28.8861L13.9931 30.5001C13.9815 30.5944 13.9962 30.69 14.0354 30.7764C14.0747 30.8629 14.137 30.9369 14.2155 30.9903C14.294 31.0437 14.3857 31.0745 14.4805 31.0792C14.5753 31.0839 14.6696 31.0624 14.7531 31.0171L16.1031 30.2981L17.4531 31.0481C17.5296 31.0866 17.6144 31.1055 17.7001 31.1031V31.1031Z" fill="black" fill-opacity="0.87"/>
<path d="M43.0034 27.2281C42.973 27.1377 42.9183 27.0575 42.8453 26.9962C42.7722 26.935 42.6836 26.8952 42.5894 26.8811L41.0714 26.6491L40.3964 25.2031C40.3552 25.1128 40.289 25.0363 40.2056 24.9826C40.1222 24.9289 40.0251 24.9004 39.9259 24.9004C39.8267 24.9004 39.7296 24.9289 39.6461 24.9826C39.5627 25.0363 39.4965 25.1128 39.4554 25.2031L38.7774 26.6511L37.2614 26.8841C37.1678 26.8974 37.0797 26.9363 37.0068 26.9966C36.934 27.0569 36.8793 27.1361 36.8488 27.2256C36.8182 27.3151 36.813 27.4112 36.8338 27.5035C36.8545 27.5957 36.9004 27.6804 36.9664 27.7481L38.0784 28.8861L37.8144 30.5001C37.8028 30.5944 37.8175 30.69 37.8567 30.7764C37.896 30.8629 37.9582 30.9369 38.0367 30.9903C38.1153 31.0437 38.207 31.0745 38.3018 31.0792C38.3966 31.0839 38.4909 31.0624 38.5744 31.0171L39.8984 30.2981L41.2484 31.0481C41.3343 31.0952 41.4319 31.117 41.5298 31.1109C41.6276 31.1049 41.7217 31.0713 41.8013 31.0139C41.8808 30.9566 41.9425 30.8779 41.9791 30.7869C42.0158 30.696 42.0259 30.5966 42.0084 30.5001L41.7444 28.8861L42.8564 27.7481C42.9264 27.6834 42.9773 27.6006 43.0032 27.5088C43.0291 27.4171 43.0292 27.3199 43.0034 27.2281V27.2281Z" fill="black" fill-opacity="0.87"/>
<path d="M34.4319 20.6172L34.1679 22.2262C34.1564 22.3205 34.171 22.4161 34.2103 22.5026C34.2495 22.589 34.3118 22.663 34.3903 22.7164C34.4688 22.7698 34.5605 22.8006 34.6553 22.8053C34.7502 22.8101 34.8445 22.7886 34.9279 22.7432L36.2779 22.0142L37.6279 22.7642C37.7139 22.8114 37.8114 22.8331 37.9093 22.8271C38.0071 22.821 38.1013 22.7874 38.1808 22.7301C38.2603 22.6727 38.322 22.594 38.3586 22.5031C38.3953 22.4122 38.4054 22.3127 38.3879 22.2162L38.1239 20.6022L39.2359 19.4642C39.3018 19.3965 39.3477 19.3118 39.3685 19.2196C39.3892 19.1274 39.384 19.0312 39.3535 18.9417C39.323 18.8523 39.2682 18.773 39.1954 18.7127C39.1226 18.6525 39.0345 18.6135 38.9409 18.6002L37.4249 18.3672L36.7489 16.9262C36.7078 16.836 36.6416 16.7594 36.5581 16.7058C36.4747 16.6521 36.3776 16.6235 36.2784 16.6235C36.1792 16.6235 36.0821 16.6521 35.9987 16.7058C35.9152 16.7594 35.849 16.836 35.8079 16.9262L35.1299 18.3742L33.6139 18.6072C33.5203 18.6205 33.4322 18.6595 33.3594 18.7197C33.2866 18.78 33.2318 18.8593 33.2013 18.9487C33.1707 19.0382 33.1656 19.1344 33.1863 19.2266C33.2071 19.3188 33.253 19.4035 33.3189 19.4712L34.4319 20.6172Z" fill="black" fill-opacity="0.87"/>
<path d="M17.8792 20.6172L17.6152 22.2262C17.6036 22.3205 17.6183 22.4161 17.6575 22.5026C17.6968 22.589 17.759 22.663 17.8376 22.7164C17.9161 22.7698 18.0078 22.8006 18.1026 22.8053C18.1974 22.8101 18.2917 22.7886 18.3752 22.7432L19.7252 22.0142L21.0752 22.7642C21.1611 22.8114 21.2587 22.8331 21.3566 22.8271C21.4544 22.821 21.5486 22.7874 21.6281 22.7301C21.7076 22.6727 21.7693 22.594 21.8059 22.5031C21.8426 22.4122 21.8527 22.3127 21.8352 22.2162L21.5712 20.6022L22.6832 19.4642C22.7491 19.3965 22.795 19.3118 22.8157 19.2196C22.8365 19.1274 22.8313 19.0312 22.8008 18.9417C22.7702 18.8523 22.7155 18.773 22.6427 18.7127C22.5698 18.6525 22.4818 18.6135 22.3882 18.6002L20.8722 18.3672L20.1962 16.9262C20.155 16.836 20.0888 16.7594 20.0054 16.7058C19.922 16.6521 19.8249 16.6235 19.7257 16.6235C19.6265 16.6235 19.5294 16.6521 19.4459 16.7058C19.3625 16.7594 19.2963 16.836 19.2552 16.9262L18.5772 18.3742L17.0612 18.6072C16.9676 18.6205 16.8795 18.6595 16.8066 18.7197C16.7338 18.78 16.6791 18.8593 16.6486 18.9487C16.618 19.0382 16.6128 19.1344 16.6336 19.2266C16.6543 19.3188 16.7002 19.4035 16.7662 19.4712L17.8792 20.6172Z" fill="black" fill-opacity="0.87"/>
<path d="M22.9058 34.6414L21.3898 34.4084L20.7128 32.9624C20.6716 32.8721 20.6054 32.7956 20.522 32.7419C20.4386 32.6882 20.3415 32.6597 20.2423 32.6597C20.1431 32.6597 20.046 32.6882 19.9625 32.7419C19.8791 32.7956 19.8129 32.8721 19.7718 32.9624L19.0938 34.4104L17.5778 34.6434C17.4842 34.6567 17.3961 34.6956 17.3232 34.7559C17.2504 34.8161 17.1957 34.8954 17.1652 34.9849C17.1346 35.0743 17.1294 35.1705 17.1502 35.2627C17.1709 35.355 17.2168 35.4396 17.2828 35.5074L18.3948 36.6454L18.1308 38.2594C18.1192 38.3536 18.1339 38.4492 18.1731 38.5357C18.2124 38.6222 18.2746 38.6962 18.3532 38.7496C18.4317 38.803 18.5234 38.8337 18.6182 38.8385C18.713 38.8432 18.8073 38.8217 18.8908 38.7764L20.2408 38.0574L21.5908 38.8074C21.6767 38.8545 21.7743 38.8763 21.8722 38.8702C21.97 38.8642 22.0642 38.8305 22.1437 38.7732C22.2232 38.7158 22.2849 38.6372 22.3215 38.5462C22.3582 38.4553 22.3683 38.3558 22.3508 38.2594L22.0868 36.6454L23.1988 35.5074C23.2647 35.4396 23.3106 35.355 23.3313 35.2627C23.3521 35.1705 23.3469 35.0743 23.3164 34.9849C23.2858 34.8954 23.2311 34.8161 23.1583 34.7559C23.0855 34.6956 22.9974 34.6567 22.9038 34.6434L22.9058 34.6414Z" fill="black" fill-opacity="0.87"/>
<path d="M38.9419 35.158L37.4259 34.925L36.7489 33.479C36.7078 33.3887 36.6416 33.3122 36.5581 33.2585C36.4747 33.2048 36.3776 33.1763 36.2784 33.1763C36.1792 33.1763 36.0821 33.2048 35.9987 33.2585C35.9152 33.3122 35.849 33.3887 35.8079 33.479L35.1299 34.927L33.6139 35.16C33.5203 35.1733 33.4322 35.2122 33.3594 35.2725C33.2866 35.3327 33.2318 35.412 33.2013 35.5015C33.1707 35.5909 33.1656 35.6871 33.1863 35.7793C33.2071 35.8716 33.253 35.9562 33.3189 36.024L34.4309 37.162L34.1669 38.776C34.1554 38.8702 34.17 38.9658 34.2093 39.0523C34.2485 39.1388 34.3108 39.2128 34.3893 39.2662C34.4678 39.3196 34.5595 39.3503 34.6543 39.3551C34.7492 39.3598 34.8435 39.3383 34.9269 39.293L36.2769 38.574L37.6269 39.324C37.7129 39.3711 37.8104 39.3929 37.9083 39.3868C38.0062 39.3808 38.1003 39.3471 38.1798 39.2898C38.2593 39.2325 38.321 39.1538 38.3576 39.0628C38.3943 38.9719 38.4044 38.8724 38.3869 38.776L38.1229 37.162L39.2349 36.024C39.3008 35.9562 39.3467 35.8716 39.3675 35.7793C39.3882 35.6871 39.383 35.5909 39.3525 35.5015C39.322 35.412 39.2672 35.3327 39.1944 35.2725C39.1216 35.2122 39.0335 35.1733 38.9399 35.16L38.9419 35.158Z" fill="black" fill-opacity="0.87"/>
<path d="M31.1047 25.934V24.896C31.1047 24.0729 30.7777 23.2835 30.1957 22.7015C29.6137 22.1195 28.8243 21.7925 28.0012 21.7925C27.1781 21.7925 26.3887 22.1195 25.8067 22.7015C25.2247 23.2835 24.8977 24.0729 24.8977 24.896V25.931C24.6936 25.931 24.4916 25.9712 24.3031 26.0494C24.1146 26.1276 23.9434 26.2422 23.7992 26.3866C23.6551 26.531 23.5408 26.7025 23.463 26.8911C23.3852 27.0798 23.3453 27.2819 23.3457 27.486V31.624C23.3457 32.0356 23.5092 32.4304 23.8003 32.7214C24.0913 33.0125 24.4861 33.176 24.8977 33.176H31.1047C31.5163 33.176 31.9111 33.0125 32.2021 32.7214C32.4932 32.4304 32.6567 32.0356 32.6567 31.624V27.486C32.6567 27.0744 32.4932 26.6796 32.2021 26.3885C31.9111 26.0975 31.5163 25.934 31.1047 25.934ZM29.9197 28.888L27.8507 30.957C27.8026 31.0056 27.7454 31.0441 27.6823 31.0705C27.6192 31.0968 27.5516 31.1103 27.4832 31.1103C27.4149 31.1103 27.3472 31.0968 27.2841 31.0705C27.221 31.0441 27.1638 31.0056 27.1157 30.957L26.0807 29.922C25.9832 29.8245 25.9285 29.6923 25.9285 29.5545C25.9285 29.4166 25.9832 29.2844 26.0807 29.187C26.1782 29.0895 26.3104 29.0348 26.4482 29.0348C26.586 29.0348 26.7182 29.0895 26.8157 29.187L27.4827 29.859L29.1827 28.152C29.231 28.1037 29.2883 28.0654 29.3513 28.0393C29.4144 28.0132 29.482 27.9998 29.5502 27.9998C29.6185 27.9998 29.686 28.0132 29.7491 28.0393C29.8122 28.0654 29.8694 28.1037 29.9177 28.152C29.966 28.2002 30.0042 28.2575 30.0304 28.3206C30.0565 28.3836 30.0699 28.4512 30.0699 28.5195C30.0699 28.5877 30.0565 28.6553 30.0304 28.7184C30.0042 28.7814 29.966 28.8387 29.9177 28.887L29.9197 28.888ZM25.9317 24.896C25.9317 24.3472 26.1497 23.821 26.5377 23.433C26.9257 23.045 27.452 22.827 28.0007 22.827C28.5494 22.827 29.0757 23.045 29.4637 23.433C29.8517 23.821 30.0697 24.3472 30.0697 24.896V25.931H25.9317V24.896Z" fill="black" fill-opacity="0.87"/>
</svg>
